# xmcd
#
# Track frame offsets: 
#        150
#        11920
#        24743
#        37321
#        54132
#        66558
#        83526
#        94634
#        110053
#        122930
#        134624
#        141700
#        145785
#        158122
#        175617
#        200038
#        211053
#
# Disc length: 3058 seconds
#
# Revision: 0
# Processed by: cddbd v1.4PL0 Copyright (c) Steve Scherf et al.
# Submitted via: ExactAudioCopy v0.95a3
#
DISCID=020bf011
DTITLE=Johnny Cash with the Carter Family - International Festival of 
DTITLE=Country Music, Wembley Arena - 03.31.86  CD1
DYEAR=1986
DGENRE=Country
TTITLE0=Intro Medley
TTITLE1=Ring of Fire (J. Carter/M. Kilgore)
TTITLE2=Folsom Prison (J. Cash)
TTITLE3=Sunday Mornin' Comin' Down (K. Kristofferson)
TTITLE4=Any Ole Wind That Blows (D. Feller)
TTITLE5=These Hands (DA "Eddie" Noack, Jr.)
TTITLE6=Here Comes That Rainbow Again (K. Kristofferson)
TTITLE7=Love is the Way (K. Kristofferson)
TTITLE8=The Highway Man (J. Webb)
TTITLE9=Big River (J. Cash)
TTITLE10=I Guess Things Happen That Way (J. Cash)
TTITLE11=Band Introductions
TTITLE12=Fairweather Friends (J. Allen and J. Cash)
TTITLE13=Piano Solo (E. Ball)
TTITLE14=One Little Piece at a Time (W. Kemp) 
TTITLE15=Forty Shades of Green (J. Cash)
TTITLE16=Ghost Riders in the Sky (S. Jones)
EXTD=Johnny Cash, with:\nThe Carter Family and Carlene Carter\nJohn Schn
EXTD=eider\n\nInternational Festival of Country Music, Wembley Arena, 
EXTD=31 March 1986\n\npre-FM soundboard recording\n\nDisc 1 of 2\n\nTh
EXTD=e band:\n\nBob Wootton, guitar\nJim Soldi, guitar\nJoe Allen, bas
EXTD=s\nEarl Poole Ball, piano\nW. S. Holland, drums\nBob Lewin, keybo
EXTD=ards and horns\nJack Hale, Jr., horns and harmonica\n\n
EXTT0=
EXTT1=
EXTT2=
EXTT3=
EXTT4=
EXTT5=
EXTT6=
EXTT7=
EXTT8=
EXTT9=
EXTT10=
EXTT11=
EXTT12=
EXTT13=
EXTT14=
EXTT15=
EXTT16=
PLAYORDER=
